<?xml version="1.0" encoding="UTF-8"?>
<svg id="Layer_2" data-name="Layer 2" xmlns="http://www.w3.org/2000/svg" viewBox="0 0 541.29 763">
  <defs>
    <style>
      .cls-1 {
        fill: #253763;
        stroke-width: 0px;
      }
    </style>
  </defs>
  <g id="Layer_1-2" data-name="Layer 1">
    <g>
      <path class="cls-1" d="M380.5,446.18c-.4-20.78-.7-41.55-1.02-62.33-.35-22.94-.66-45.88-.99-68.82-.34-24.11-.67-48.21-1.02-72.32-.32-22.16-.68-44.31-.99-66.46-.35-24.94-.65-49.88-1.01-74.82-.3-21.06-.69-42.12-.94-63.18-.05-3.94-1.38-4.73-5.23-3.82-9.05,2.13-18.25,3.64-27.34,5.63-2.65.58-5.05,2.36-7.7,2.85-11.4,2.1-22.89,3.74-34.28,5.9-11.53,2.19-22.98,4.83-34.47,7.23-3.54.74-5.13,2.46-4.96,6.45.35,8.07.19,16.17.09,24.26-.28,20.88-.88,41.77-.94,62.65-.14,49.39-.05,98.77-.05,148.16,0,20,0,39.99,0,59.99,0,4.03,0,8.06,0,12.12-1.31.14-1.98.33-2.6.24-.96-.15-1.91-.44-2.83-.77-10.88-3.9-21.78-7.74-32.61-11.78-4.24-1.58-8.88-2.9-12.3-5.64-4.71-3.79-8.51-8.75-12.52-13.37-.84-.96-1.4-2.7-1.2-3.94,1.08-6.59,2.05-13.25,3.82-19.67,2.57-9.33,6.25-18.37,8.58-27.76,1.97-7.92,3.95-15.74,10.35-21.1,2.92-2.45,4.05-4.3,2.39-7.69-.24-.48.1-1.28.24-1.92,1.18-5.45,2.93-10.85,3.44-16.37.61-6.65,1.19-13.61-.17-20.02-1-4.71-2.15-9.66-4.09-14.44-4.21-10.39-11.29-17.38-19.87-23.63-7.02-5.11-13.88-10.43-20.82-15.65-1.04-.78-2-1.79-3.17-2.24-14.6-5.68-28.8-9.6-44.93-3.45-10.18,3.88-19.32,9-28.5,14.43-1.55.91-3.29,1.76-4.41,3.08-11.46,13.47-18.41,28.91-18.46,46.76-.03,12.95,1.03,25.91,1.55,37.6,5.01,3.46-1.33,9.2,3.2,10.92-.72,1.35-2.28,3.04-1.91,3.85.58,1.26,2.46,1.93,3.58,2.7.57,4.37,1.13,8.7,1.73,13.29,2.23-.39,3.77-.66,5.61-.99,2.68,4.35,5.3,8.62,7.93,12.88.55-.23,1.09-.46,1.64-.7-2.35-7.28-1.92-15.32-7.05-22.92-.32,2.32-.49,3.6-.8,5.86-.53-2.06-.81-3.14-1.42-5.53-.17,3.72-.28,6-.38,8.28-.41,0-.81,0-1.22,0-.2-12.97-1-25.98-.31-38.9.29-5.35-1.08-12.23,5.44-16,1.12-.65,1.97-2.55,2.13-3.97.63-5.62.93-11.27,1.38-17.37.31-.1,1.71-.2,2.66-.91,3.9-2.9,7.63-6.03,11.5-8.98.79-.6,1.87-.97,2.87-1.12,3.04-.45,6.11-.74,9.17-1.11.94-.12,2.16-.79,2.76-.42,5.23,3.22,10.5.39,15.68.12,7.01-.37,13.98-1.61,20.97-2.38,3.31-.36,4.82,1.27,3.79,4.47-.93,2.88-.62,3.84,2.62,2.86,2.91-.88,5.95-1.82,7.84,2.12.43.88,2.33,1,3.5,1.59,3.47,1.74,8.58-.26,10.78,4.65.06.13,2.14-.65,2.91-.89,1.22,3.45,2.68,6.72,3.52,10.15,1.19,4.85,2.43,9.78,2.69,14.73.22,4.14,3.96,8.96-1.01,11.88,4.16,5.56,1.04,11.15.68,16.31-.39,5.56-.61,11.42-3.82,16.96,2.35,4.98,2.34,5.09-.33,7.73.71,3.35,2.25,6.17,1.54,8.21-1.35,3.9-3.25,8.2-6.24,10.81-5.44,4.75-11.86,8.38-17.85,12.5-.38.26-.73.69-.9,1.12-1.24,3.04-1.23,3.04-4,.96-2.07,1.62-3.98,3.51-6.24,4.81-4.98,2.86-9.88,6.27-15.28,7.85-5.63,1.65-11.65.86-16.1-4.16-.37-.41-1.26-.31-1.81-.63-3.87-2.26-8.06-4.14-11.47-6.97-3.48-2.88-5.81-7.16-9.31-9.99-4.13-3.35-8.99-5.81-14.01-8.95.58,1.66,1.31,3.43,1.8,5.26.82,3.03.76,6.6,2.42,9.04,2.05,3.02,4.01,5.23,4.08,9.52.18,11.8,2.01,23.58,2.17,35.39.12,9.23,2.61,17.64,6.03,26.68-.14-6.15,4.54-3.03,6.88-4.39.05-.5.19-1.01.13-1.49-.6-4.56-1.95-9.15-1.7-13.65.41-7.27,6.55-4.8,10.89-5.66,2.41-.48,4.52-2.46,7.29-4.07-1.47-.46-2.44-.76-2.81-.88,1.29-1.85,2.25-4.83,4.1-5.57,5.55-2.23,11.48-3.54,17.22-5.31,4.29-1.33,8.75-2.37,12.74-4.33,7.58-3.72,14.88-8,22.88-12.37-.93,4.45-1.59,7.63-2.26,10.81-.4,1.45.77,3.21.5,4.71-1.64,9.18-3.11,18.43-5.55,27.41-4.41,16.24-9.77,32.23-14.16,48.47-4.7,17.39-9.16,34.86-12.92,52.47-2.46,11.53-3.61,23.35-5.13,35.06-1.47,11.26-2.73,22.54-3.97,33.82-1.13,10.32-2.11,20.65-3.15,30.97-1.62,15.99-3.85,31.95-4.71,47.98-1.2,22.26,5.75,43.53,9.51,65.18,1.81,10.46,4.27,20.81,6.47,31.34-1.11.23-1.76.51-2.38.48-14.36-.64-28.73-1.17-43.08-2.13-1.95-.13-5.12-2.22-5.37-3.77-.61-3.83-.83-8.52,3.22-10.84,2.6-1.49,3.09-3.26,2.33-5.38-4.23-11.79-.53-23.49.34-35.18.88-11.79,3.18-23.5,3.65-35.29.65-16.2.16-32.44.16-48.67,0-6.55.37-13.12-.06-19.64-1.12-16.77-2.65-33.52-3.91-50.29-1.4-18.6-2.95-37.2-3.93-55.83-.77-14.68-1.43-29.43-.86-44.1.39-9.96.58-19.37-2.95-29.03-2.39-6.54-2.14-14.05-2.95-20.27-3.66,2.36-7.67,4.94-11.66,7.54-2.19,1.43-4.42,2.81-6.54,4.34-15.46,11.11-31.68,20.79-49.39,28-3.9,1.59-7.8,5.07-9.98,8.7-7.69,12.8-10.25,27.58-14.54,41.67-1.33,4.36-2.38,8.87-2.97,13.39-.97,7.51-1.48,15.08-2.16,22.62-1.31,14.43-2.97,28.85-3.77,43.31-.45,8.23.38,16.55.86,24.82.97,16.4,2.19,32.81,7.1,48.6,3.28,10.56,5.59,21.58,13.16,30.39,2.18,2.53,3.09,6.1,4.91,9,3.51,5.59,6.53,11.75,11.1,16.32,4.15,4.16,6.81,7.56,4.87,13.62-1.24,3.87-1.61,8.04-2.17,12.1-1.2,8.62-1.98,17.3-3.52,25.85-.75,4.17.82,5.5,5.48,5.79v43.47h300.62c1-15.31,1.94-30.63,3.01-45.93.44-6.24,1.04-12.47,1.73-18.68,1.35-12.09,2.63-24.19,4.31-36.23.68-4.9,1.94-9.81,3.64-14.45,3.71-10.07,3.3-20.1-2.6-28.65-3.54-5.14-3.59-8.86-1.35-13.95,3.13-7.09,5.49-14.16,2.52-22.31-1.82-4.99-2.22-10.71-2.25-16.11-.06-10.32,1.67-20.75.68-30.94-1.42-14.64-4.56-29.11-7.09-43.63-.73-4.17,2.11-8.27,6.27-8.17,8.43.21,16.86.51,25.28.97,3.73.21,4.99-1.2,4.83-4.9-.49-11.27-.82-22.56-1.04-33.84Z"/>
      <path class="cls-1" d="M541.25,153.26c0-36.83,0-73.66,0-110.5,0-1.56-.2-3.12-.3-4.58-9.66,2.32-18.86,4.51-28.05,6.79-.89.22-1.7.86-2.47,1.42-5.4,3.89-3.72,9.87-3.18,14.69.76,6.8,2.59,13.43,1.81,20.42-.4,3.55.18,7.19-.1,10.76-.24,3.1-1.06,6.15-1.64,9.22-.23,1.24-1.01,2.61-.7,3.67,2.32,8.09,1.18,9.56-7.05,8.22-.17-2.35-.34-4.76-.52-7.24-1.2-.09-2.02-.18-2.83-.2-9.12-.2-12.86-4.03-12.86-13.16,0-3.54,0-7.07,0-10.61-.41-.04-.82-.08-1.22-.11-.44.96-.88,1.93-1.51,3.3-.81-12.45,1.68-17.62,9.34-20.15,1.15-7.66,2.23-15.29,3.48-22.9.23-1.41,1.34-2.65,1.76-4.06.82-2.75,1.94-5.54,2.03-8.34.28-8.18,6.88-14.97,15.1-15,2.8,0,5.61,0,10.14,0-1.78-2.97-2.93-4.88-3.98-6.63,1.06-.44,2.53-1.05,3.85-1.6.73,3.75,1.45,7.49,2.17,11.23l1.4-.3c.68-3.77,1.37-7.55,1.78-9.81,4.56-.25,8.42.14,11.78-.98,1.23-.41,1.25-4.42,1.82-6.79h-16.98c-.4.51-.73,1.38-1.22,1.48-10.06,2.2-20.13,4.39-30.23,6.41-8.93,1.79-17.91,3.36-26.87,5.03-2.93.55-3.49,1.76-3.21,5.11.74,8.87.68,17.83.43,26.74-.17,6.23-1.08,12.44-1.83,18.64-.64,5.3-1.52,10.57-2.46,16.97-4.88-5.25-2.06-12.03-7.33-15.31-.22-.14.04-1.23.22-1.83.84-2.7,1.71-5.39,2.61-8.07.87-2.59,1.44-5.36,2.74-7.71,3.76-6.82,3.12-8.95-3.4-13.92-4.3-3.27-8.03-7.29-12.01-10.97.23-.49.46-.99.69-1.48l11.54-2.17c.02-.47.04-.95.05-1.42-1.57-.34-3.23-1.19-4.69-.92-7.09,1.28-14.08,3.34-21.21,4.14-4.33.48-4.77,2.62-4.66,5.84.3,8.95.74,17.89.96,26.84.4,16.11.77,32.22,1.01,48.34.4,26.94.66,53.89,1.02,80.83.29,20.95.61,41.89,1,62.84.26,13.99.73,27.98.97,41.97.4,22.45.75,44.9.99,67.35.14,13.16.02,26.33.03,39.5,0,9.65-.1,19.3.04,28.95.28,20.25.64,40.5,1.16,60.74.03,1.34,1.49,3.39,2.72,3.8,2.6.85,5.48,1.06,8.26,1.14,14.25.42,28.51.68,42.76,1.05,11.26.29,22.51.75,33.78.97,7.59.15,15.18.03,22.88.03V168.81c-4.39.71-8.49,1.54-12.64,1.95-1.37.13-2.88-.75-4.28-1.3-4.43-1.73.61-4.26-.86-6.01,3.43-.56,6.43-1.32,9.48-1.5,7.74-.45,8.5-1.09,8.51-8.69ZM455.69,187.98c-3.36-.09-3.75,5.45-7.88,4.11-.67-.22-1.9,1.02-2.77,1.72-3.26,2.63-6.47,5.32-10.28,8.46-2.84-5.96-2.74-5.93-.55-11.74.38-1-.42-2.49-.8-3.71-2.12-6.84-.94-9.6,4.36-13.11,4.23-2.8,9.17-3.08,13.19-5.85.51-.35,3.18.95,3.3,1.73.87,5.67,1.35,11.4,1.91,17.11.04.42-.33,1.27-.49,1.27ZM520.69,96.14c-.46-6.69-1.14-13.43-1.31-20.17-.13-4.97,1.27-5.7,6.08-4.54,2.85.68,5.82.83,8.66,1.53,2.01.49,4.01,1.32,5.74,2.42.42.27.13,2.44-.46,3.32-.7,1.06-2.07,1.67-4.06,3.16-.99.05-3.26.16-6.63.32.82,3.36,1.53,6.25,2.23,9.13-.93,5.33-5.77,4.76-10.26,4.84Z"/>
      <path class="cls-1" d="M275.65,17.31c13.14-3.14,26.26-6.36,39.38-9.61,10.18-2.52,20.34-5.13,30.51-7.7h-13.98c-5.11,1.37-10.21,2.8-15.33,4.09-17.01,4.31-34.04,8.56-51.05,12.89-1.24.32-2.36,1.11-3.54,1.68.16.47.31.94.47,1.41,4.52-.91,9.07-1.69,13.55-2.76Z"/>
      <path class="cls-1" d="M114.31,254.04c-1.32.67-2.15,1.08-2.97,1.5.01.51.03,1.01.04,1.52,5.32.76,10.64,1.52,15.97,2.28.1-.57.19-1.13.29-1.7-3.42-2.29-8.91,1.92-12.47-4.01,6.1,0,11.24-.57,16.17.19,3.69.56,5.33.61,3.82-4.11l1.83.14c.59,2.42,1.18,4.84,1.88,7.72,3.56-.42,6.55-7.63,3.97-12.42-2.99-5.56-7.63-8.68-14.06-9.27-5.25-.48-11.04.13-14.13-5.52-8.31,2.31-15.4,5.28-9.69,16-1.6.42-2.82.74-4.71,1.23,3.42,5.25,9.41,3.85,14.04,6.44ZM132.77,243.8c-1.92,1.74-2.85,2.58-3.79,3.43.12.52.24,1.03.36,1.55-2.74-.97-5.41-2.28-8.23-2.82-3.06-.58-6.99.74-7.36-5.09,6.5,1,12.2,1.88,19.02,2.93Z"/>
      <path class="cls-1" d="M122.86,303.55c3.73,5.52,11.29,8.91,16.95,7.75-4.78-3.46-9.71-7.03-14.64-10.6.27-.6.54-1.19.81-1.79h19c-.33-.52-.87-2.39-1.68-2.52-6.29-.97-12.63-1.61-19.25-2.39v-3.32c-2.39-.72-4.61-1.38-6.76-2.03.59-1.34,1-2.29,1.5-3.43-6.41.64-8.3,3.32-7.58,10.21,2.91.12,9.22,4.51,11.66,8.12Z"/>
      <path class="cls-1" d="M145.62,284.3c-5.46-2.95-12.59.39-16.97-6.27-.32,3.66-.58,6.63-.74,8.45,13.25,7.38,24.82,5.44,35.81-1.51-.17-.76-.35-1.52-.52-2.28-5.97.74-13.26,3.94-17.58,1.61Z"/>
      <path class="cls-1" d="M167.36,250.33c-1.49-.01-3,1.86-4.5,2.87,1.45.89,2.83,2.38,4.36,2.55,5.63.62,11.3.91,16.97,1.11,2.69.09,5.41-.31,8.11-.49-.1-.46-.21-.92-.31-1.37-1.88-1.19-3.67-3.18-5.67-3.44-6.28-.81-12.63-1.17-18.96-1.23Z"/>
      <path class="cls-1" d="M165.6,239.67c-2.55,2.07-4.79,4.52-7.3,6.64-.29.24-1.46-.58-2.78-1.15.79,2.47,1.37,4.29,1.96,6.12,1.55-.35,3.21-.73,3.92-.89,5.2-9.54,14.08-8.37,22.67-8.67-6.01-5.91-12.94-6.54-18.47-2.05Z"/>
      <path class="cls-1" d="M358,7.98c-11.4,2.64-22.79,5.27-34.19,7.91,11.74-.53,24.67,3.87,34.19-7.91Z"/>
      <path class="cls-1" d="M158.97,296.08c-1.26-.07-2.62,1.7-3.94,2.61l.87,1.16c4.09-1.71,7.1-.03,8.59,5.65,4.58-2.18,8.76-4.17,12.94-6.17-.17-.47-.35-.95-.52-1.42-5.98-.66-11.95-1.5-17.94-1.84Z"/>
      <path class="cls-1" d="M198.17,244.74c.96.45,1.71,1.33,2.55,2.01.61-.91,1.86-1.99,1.68-2.7-.3-1.17-1.45-2.18-2.4-3.09-.74-.71-1.66-1.28-2.59-1.73-3.6-1.72-7.24-3.37-10.86-5.05.07,4.39-.38,7.94,4.69,7.86,2.3-.03,4.67,1.63,6.92,2.69Z"/>
      <path class="cls-1" d="M183.71,298.25c2.67-3.47.58-7.69-6.7-12.3,2.26,4.73.21,10.64,6.7,12.3Z"/>
      <path class="cls-1" d="M263.66,33.65c1.63.24,3.61-1.88,5.42-2.93-.35-.37-.71-.73-1.06-1.1-1.66-.2-3.66-1.09-4.9-.46-3.13,1.58-3.02,3.97.54,4.49Z"/>
    </g>
  </g>
</svg>