<svg width="1101" height="704" viewBox="0 0 1101 704" fill="none" xmlns="http://www.w3.org/2000/svg">
<circle cx="541.242" cy="438.299" r="110.709" fill="url(#paint0_linear_29_55)"/>
<path d="M1083.21 504.109C1083.21 526.714 1068.21 548.346 1040.84 568.104C1013.48 587.853 973.864 605.658 924.862 620.62C826.865 650.543 691.452 669.057 541.857 669.057C392.263 669.057 256.85 650.543 158.852 620.62C109.85 605.658 70.2316 587.853 42.8744 568.104C15.5056 548.346 0.499878 526.714 0.499878 504.109C0.499878 481.504 15.5056 459.872 42.8744 440.115C70.2316 420.366 109.85 402.56 158.852 387.598C256.85 357.676 392.263 339.161 541.857 339.161C691.452 339.161 826.865 357.676 924.862 387.598C973.864 402.56 1013.48 420.366 1040.84 440.115C1068.21 459.872 1083.21 481.504 1083.21 504.109Z" stroke="url(#paint1_linear_29_55)"/>
<path d="M1016.79 504.109C1016.79 526.746 1003.76 548.38 980.043 568.125C956.327 587.867 921.98 605.668 879.494 620.627C794.525 650.544 677.11 669.057 547.393 669.057C417.675 669.057 300.26 650.544 215.292 620.627C172.805 605.668 138.458 587.867 114.743 568.125C91.0241 548.38 77.9959 526.746 77.9959 504.109C77.9959 481.473 91.0241 459.838 114.743 440.094C138.458 420.352 172.805 402.551 215.292 387.592C300.26 357.675 417.675 339.161 547.393 339.161C677.11 339.161 794.525 357.675 879.494 387.592C921.98 402.551 956.327 420.352 980.043 440.094C1003.76 459.838 1016.79 481.473 1016.79 504.109Z" stroke="url(#paint2_linear_29_55)"/>
<path d="M987.267 504.109C987.267 526.765 975.406 548.403 953.838 568.14C932.269 587.878 901.031 605.675 862.387 620.632C785.103 650.545 678.302 669.057 560.309 669.057C442.315 669.057 335.514 650.545 258.23 620.632C219.587 605.675 188.349 587.878 166.78 568.14C145.211 548.403 133.35 526.765 133.35 504.109C133.35 481.454 145.211 459.815 166.78 440.078C188.349 420.341 219.587 402.543 258.23 387.586C335.514 357.673 442.315 339.161 560.309 339.161C678.302 339.161 785.103 357.673 862.387 387.586C901.031 402.543 932.269 420.341 953.838 440.078C975.406 459.815 987.267 481.454 987.267 504.109Z" stroke="url(#paint3_linear_29_55)"/>
<path d="M735.097 419.233C735.097 512.32 651.111 587.871 547.393 587.871C443.675 587.871 359.688 512.32 359.688 419.233C359.688 326.145 443.675 250.594 547.393 250.594C651.111 250.594 735.097 326.145 735.097 419.233Z" stroke="url(#paint4_linear_29_55)"/>
<path d="M727.717 462.901C727.717 490.491 707.595 515.574 674.832 533.788C642.085 551.993 596.812 563.269 546.778 563.269C496.743 563.269 451.47 551.993 418.724 533.788C385.96 515.574 365.839 490.491 365.839 462.901C365.839 435.311 385.96 410.228 418.724 392.014C451.47 373.809 496.743 362.533 546.778 362.533C596.812 362.533 642.085 373.809 674.832 392.014C707.595 410.228 727.717 435.311 727.717 462.901Z" stroke="url(#paint5_linear_29_55)"/>
<path d="M1049.39 447.831C1049.39 445.921 1047.34 444.111 1044.19 442.989C1044.92 439.253 1044.6 436.279 1043.17 435.327C1042.83 435.102 1042.44 434.989 1042.05 434.999V436.308C1042.28 436.308 1042.46 436.362 1042.62 436.462C1043.31 436.921 1043.6 438.665 1043.37 440.909C1043.32 441.462 1043.22 442.043 1043.11 442.636C1042.06 442.34 1040.99 442.127 1039.92 441.996C1039.27 440.964 1038.57 439.982 1037.82 439.059C1039.46 437.279 1041 436.303 1042.05 436.303V434.993C1040.67 434.993 1038.85 436.145 1037.02 438.142C1035.18 436.158 1033.37 435.017 1031.99 435.017V436.326C1033.03 436.326 1034.58 437.297 1036.22 439.065C1035.51 439.929 1034.81 440.909 1034.14 441.996C1033.06 442.125 1031.99 442.341 1030.93 442.642C1030.82 442.08 1030.73 441.512 1030.67 440.939C1030.43 438.693 1030.73 436.95 1031.41 436.486C1031.56 436.38 1031.75 436.332 1031.99 436.332V435.023C1031.56 435.023 1031.18 435.129 1030.85 435.351C1029.43 436.303 1029.11 439.27 1029.84 442.995C1026.71 444.124 1024.67 445.927 1024.67 447.831C1024.67 449.74 1026.72 451.55 1029.86 452.671C1029.14 456.408 1029.46 459.382 1030.88 460.333C1031.21 460.556 1031.59 460.662 1032.02 460.662C1033.4 460.662 1035.21 459.51 1037.05 457.513C1038.88 459.498 1040.7 460.638 1042.08 460.638C1042.48 460.648 1042.87 460.534 1043.22 460.309C1044.64 459.358 1044.95 456.391 1044.22 452.666C1047.35 451.544 1049.39 449.734 1049.39 447.831ZM1042.83 443.912C1042.63 444.697 1042.4 445.471 1042.15 446.232C1041.73 445.277 1041.26 444.347 1040.76 443.447C1041.48 443.571 1042.17 443.723 1042.83 443.912H1042.83ZM1040.52 450.169C1040.14 450.937 1039.74 451.686 1039.31 452.414C1037.79 452.569 1036.27 452.571 1034.76 452.42C1033.89 450.975 1033.14 449.446 1032.49 447.849C1033.14 446.248 1033.89 444.713 1034.75 443.261C1036.26 443.105 1037.78 443.103 1039.3 443.254C1039.71 443.953 1040.12 444.7 1040.51 445.488C1040.9 446.256 1041.25 447.037 1041.56 447.825C1041.24 448.622 1040.89 449.404 1040.52 450.169V450.169ZM1042.15 449.405C1042.42 450.192 1042.65 450.98 1042.84 451.744C1042.18 451.932 1041.49 452.091 1040.77 452.213C1041.27 451.304 1041.73 450.367 1042.15 449.405V449.405ZM1037.04 455.674C1036.57 455.11 1036.1 454.482 1035.64 453.794C1036.09 453.818 1036.55 453.836 1037.02 453.836C1037.5 453.836 1037.97 453.824 1038.42 453.794C1037.97 454.482 1037.5 455.11 1037.04 455.674ZM1033.29 452.213C1032.6 452.096 1031.91 451.941 1031.22 451.75C1031.41 450.992 1031.64 450.21 1031.9 449.429C1032.11 449.898 1032.33 450.368 1032.56 450.839C1032.8 451.309 1033.04 451.768 1033.29 452.213ZM1037.01 439.987C1037.48 440.551 1037.95 441.18 1038.41 441.868C1037.96 441.844 1037.5 441.826 1037.03 441.826C1036.55 441.826 1036.09 441.838 1035.63 441.868C1036.08 441.18 1036.55 440.551 1037.01 439.987ZM1033.28 443.448C1032.79 444.355 1032.32 445.29 1031.9 446.25C1031.64 445.484 1031.41 444.704 1031.21 443.912C1031.87 443.729 1032.56 443.571 1033.28 443.448ZM1028.73 450.803C1026.94 449.917 1025.79 448.753 1025.79 447.831C1025.79 446.908 1026.94 445.739 1028.73 444.858C1029.16 444.641 1029.63 444.446 1030.12 444.265C1030.41 445.415 1030.79 446.614 1031.25 447.843C1030.81 448.998 1030.44 450.188 1030.14 451.402C1029.66 451.23 1029.19 451.03 1028.73 450.803V450.803ZM1031.44 459.198C1030.75 458.742 1030.45 456.995 1030.69 454.752C1030.74 454.2 1030.83 453.617 1030.94 453.024C1031.93 453.306 1033.01 453.523 1034.14 453.665C1034.78 454.698 1035.48 455.679 1036.24 456.603C1034.59 458.383 1033.05 459.358 1032 459.358C1031.81 459.36 1031.61 459.306 1031.44 459.199V459.198ZM1043.39 454.722C1043.62 456.967 1043.33 458.712 1042.65 459.175C1042.5 459.281 1042.3 459.328 1042.07 459.328C1041.03 459.328 1039.48 458.359 1037.84 456.59C1038.59 455.67 1039.28 454.691 1039.92 453.659C1041 453.53 1042.07 453.314 1043.12 453.013C1043.24 453.606 1043.33 454.176 1043.39 454.722V454.722ZM1045.33 450.803C1044.89 451.021 1044.42 451.215 1043.93 451.396C1043.62 450.175 1043.24 448.98 1042.8 447.819C1043.26 446.597 1043.63 445.405 1043.91 444.259C1044.39 444.432 1044.87 444.632 1045.33 444.858C1047.11 445.745 1048.27 446.908 1048.27 447.831C1048.26 448.753 1047.11 449.923 1045.33 450.803V450.803Z" fill="url(#paint6_linear_29_55)"/>
<path d="M1037.02 450.515C1037.63 450.515 1038.22 450.233 1038.65 449.729C1039.08 449.225 1039.33 448.542 1039.33 447.83C1039.33 447.118 1039.08 446.435 1038.65 445.931C1038.22 445.428 1037.63 445.145 1037.02 445.145C1036.41 445.145 1035.83 445.428 1035.39 445.931C1034.96 446.435 1034.72 447.118 1034.72 447.83C1034.72 448.542 1034.96 449.225 1035.39 449.729C1035.83 450.233 1036.41 450.515 1037.02 450.515V450.515Z" fill="url(#paint7_linear_29_55)"/>
<path d="M962.682 397.695H950.117C949.172 397.695 948.404 398.59 948.404 399.693V414.346C948.404 415.449 949.172 416.344 950.117 416.344H962.682C963.628 416.344 964.395 415.449 964.395 414.346V399.693C964.395 398.59 963.628 397.695 962.682 397.695ZM957.106 412.239C957.106 414.054 956.193 414.883 954.861 414.883C953.658 414.883 952.962 414.158 952.605 413.28L953.83 412.418C954.065 412.905 954.279 413.318 954.797 413.318C955.29 413.318 955.604 413.093 955.604 412.214V406.258H957.106V412.239V412.239ZM960.662 414.883C959.266 414.883 958.363 414.108 957.924 413.093L959.148 412.269C959.469 412.88 959.891 413.334 960.63 413.334C961.251 413.334 961.65 412.972 961.65 412.468C961.65 411.869 961.244 411.657 960.555 411.303L960.18 411.115C959.095 410.579 958.377 409.9 958.377 408.472C958.377 407.157 959.237 406.158 960.576 406.158C961.533 406.158 962.218 406.545 962.711 407.561L961.54 408.435C961.283 407.898 961.004 407.685 960.572 407.685C960.133 407.685 959.855 408.01 959.855 408.435C959.855 408.959 960.133 409.172 960.779 409.5L961.154 409.688C962.432 410.325 963.15 410.978 963.15 412.443C963.15 414.017 962.086 414.883 960.662 414.883V414.883Z" fill="url(#paint8_linear_29_55)"/>
<path d="M1091.09 526.803C1090.8 526.803 1090.5 526.705 1090.24 526.521L1087.52 524.547C1087.11 524.266 1087.31 524.169 1087.44 524.115C1087.99 523.882 1088.1 523.833 1088.67 523.428C1088.73 523.384 1088.81 523.401 1088.88 523.449L1090.96 524.969C1091.04 525.023 1091.14 525.023 1091.21 524.969L1099.35 519.204C1099.43 519.15 1099.47 519.042 1099.47 518.933V507.403C1099.47 507.289 1099.43 507.186 1099.35 507.127L1091.21 501.367C1091.14 501.313 1091.04 501.313 1090.96 501.367L1082.84 507.132C1082.76 507.186 1082.71 507.294 1082.71 507.408V518.933C1082.71 519.042 1082.76 519.15 1082.84 519.198L1085.06 520.778C1086.28 521.519 1087.02 520.648 1087.02 519.766V508.387C1087.02 508.225 1087.12 508.1 1087.25 508.1H1088.28C1088.41 508.1 1088.52 508.225 1088.52 508.387V519.772C1088.52 521.751 1087.64 522.887 1086.11 522.887C1085.64 522.887 1085.27 522.887 1084.24 522.26L1082.11 520.751C1081.58 520.377 1081.25 519.68 1081.25 518.928V507.403C1081.25 506.656 1081.58 505.953 1082.11 505.58L1090.24 499.815C1090.75 499.458 1091.43 499.458 1091.95 499.815L1100.08 505.585C1100.61 505.959 1100.94 506.656 1100.94 507.408V518.933C1100.94 519.68 1100.61 520.377 1100.08 520.756L1091.95 526.521C1091.69 526.705 1091.39 526.803 1091.09 526.803ZM1097.66 515.439C1097.66 513.282 1096.47 512.708 1093.97 512.303C1091.44 511.892 1091.19 511.681 1091.19 510.956C1091.19 510.356 1091.4 509.555 1093.28 509.555C1094.95 509.555 1095.56 509.999 1095.82 511.383C1095.84 511.513 1095.94 511.61 1096.05 511.61H1097.1C1097.17 511.61 1097.23 511.578 1097.28 511.518C1097.32 511.459 1097.34 511.378 1097.34 511.297C1097.17 508.912 1095.88 507.803 1093.28 507.803C1090.95 507.803 1089.57 509.003 1089.57 511.021C1089.57 513.206 1090.95 513.812 1093.17 514.082C1095.84 514.401 1096.05 514.882 1096.05 515.526C1096.05 516.64 1095.32 517.116 1093.6 517.116C1091.45 517.116 1090.98 516.451 1090.82 515.137C1090.8 514.996 1090.7 514.893 1090.58 514.893H1089.53C1089.4 514.893 1089.3 515.023 1089.3 515.18C1089.3 516.862 1090.04 518.868 1093.61 518.868C1096.18 518.863 1097.66 517.614 1097.66 515.439V515.439Z" fill="url(#paint9_linear_29_55)"/>
<path fill-rule="evenodd" clip-rule="evenodd" d="M945.987 607.135C943.918 607.135 942.254 609.159 942.254 611.64C942.254 613.148 942.869 614.487 943.816 615.305C943.328 615.731 942.933 616.284 942.661 616.921C942.39 617.557 942.25 618.259 942.254 618.969C942.254 620.478 942.869 621.817 943.816 622.634C943.328 623.06 942.933 623.614 942.661 624.25C942.39 624.887 942.25 625.588 942.254 626.299C942.254 628.779 943.918 630.804 945.987 630.804C948.056 630.804 949.721 628.779 949.721 626.299V622.49C950.375 623.126 951.199 623.475 952.051 623.475C954.12 623.474 955.785 621.45 955.785 618.969C955.788 618.259 955.648 617.557 955.377 616.92C955.106 616.284 954.71 615.73 954.223 615.305C954.71 614.878 955.106 614.325 955.377 613.689C955.648 613.052 955.788 612.35 955.785 611.64C955.785 609.159 954.12 607.135 952.051 607.135H945.987V607.135ZM943.657 611.64C943.657 610.071 944.707 608.814 945.987 608.814H948.317V614.465H945.987C944.707 614.465 943.657 613.208 943.657 611.64V611.64ZM952.051 614.464H949.721V608.813H952.051C953.332 608.813 954.382 610.071 954.382 611.64C954.382 613.208 953.332 614.464 952.051 614.464ZM943.657 618.969C943.657 617.401 944.708 616.144 945.988 616.144H948.318V621.795H945.987C944.706 621.795 943.657 620.537 943.657 618.969H943.657ZM949.721 618.969C949.721 617.401 950.771 616.144 952.052 616.144C953.333 616.144 954.382 617.4 954.382 618.969C954.382 620.537 953.333 621.795 952.052 621.795C950.771 621.795 949.722 620.538 949.722 618.969H949.721ZM943.657 626.299C943.657 624.731 944.708 623.474 945.988 623.474H948.318V626.299C948.318 627.868 947.269 629.124 945.988 629.124C944.708 629.124 943.657 627.868 943.657 626.299Z" fill="url(#paint10_linear_29_55)"/>
<path d="M1030 523.933H1018.83C1017.3 523.933 1016.06 525.382 1016.06 527.169V539.704C1016.06 541.492 1017.3 542.941 1018.83 542.941H1030C1031.53 542.941 1032.78 541.492 1032.78 539.704V527.169C1032.78 525.382 1031.53 523.933 1030 523.933Z" fill="url(#paint11_linear_29_55)"/>
<path d="M1024.85 528.933L1022.76 532.948L1024.99 537.211C1025.01 537.241 1025.01 537.276 1025 537.309C1025 537.324 1024.99 537.327 1024.98 537.328L1024.97 537.327L1024.95 537.327C1024.95 537.327 1024.94 537.327 1024.93 537.329H1023.32L1023.29 537.329C1023.2 537.326 1023.14 537.312 1023.1 537.237C1022.95 536.899 1022.8 536.561 1022.65 536.224C1022.52 535.923 1022.38 535.624 1022.24 535.328L1022.17 535.197C1022 534.846 1021.84 534.493 1021.67 534.138H1021.66C1021.51 534.489 1021.36 534.838 1021.2 535.184C1021.04 535.533 1020.88 535.88 1020.72 536.224C1020.56 536.569 1020.4 536.911 1020.24 537.251C1020.21 537.32 1020.17 537.334 1020.11 537.337L1020.08 537.337H1018.55L1018.54 537.337L1018.52 537.34C1018.5 537.341 1018.5 537.337 1018.49 537.316C1018.49 537.284 1018.5 537.252 1018.51 537.224L1020.68 533.079L1018.57 528.92C1018.55 528.885 1018.54 528.857 1018.56 528.835C1018.56 528.824 1018.58 528.815 1018.59 528.809C1018.6 528.803 1018.61 528.801 1018.62 528.802H1020.2C1020.24 528.8 1020.27 528.806 1020.31 528.822C1020.33 528.839 1020.36 528.864 1020.37 528.894C1020.51 529.242 1020.66 529.591 1020.82 529.94C1020.99 530.286 1021.15 530.631 1021.32 530.973C1021.49 531.31 1021.64 531.655 1021.79 532.006H1021.8C1021.94 531.655 1022.1 531.306 1022.25 530.96C1022.4 530.62 1022.56 530.278 1022.72 529.933C1022.88 529.593 1023.04 529.251 1023.19 528.907C1023.2 528.874 1023.21 528.845 1023.23 528.822C1023.26 528.805 1023.29 528.798 1023.32 528.802H1024.79C1024.81 528.798 1024.82 528.799 1024.83 528.806C1024.85 528.812 1024.86 528.823 1024.86 528.837C1024.87 528.851 1024.87 528.867 1024.87 528.883C1024.87 528.9 1024.86 528.915 1024.85 528.926L1024.85 528.933L1024.85 528.933ZM1028.14 537.498L1028.07 537.499C1027.55 537.508 1027.04 537.383 1026.57 537.133C1026.13 536.897 1025.77 536.511 1025.52 536.028C1025.27 535.548 1025.15 534.951 1025.14 534.235L1025.14 534.177C1025.14 533.577 1025.27 532.986 1025.52 532.464C1025.77 531.947 1026.15 531.521 1026.59 531.233L1026.63 531.208C1027.12 530.894 1027.7 530.738 1028.39 530.738L1028.42 530.738L1028.46 530.739L1028.49 530.741L1028.54 530.744L1028.61 530.75L1028.69 530.758L1028.75 530.764V528.187C1028.75 528.126 1028.77 528.096 1028.82 528.096H1030.23C1030.24 528.094 1030.25 528.095 1030.26 528.099C1030.27 528.102 1030.27 528.108 1030.28 528.115C1030.29 528.123 1030.29 528.132 1030.3 528.142C1030.3 528.153 1030.3 528.163 1030.3 528.174V535.904C1030.3 536.033 1030.3 536.173 1030.31 536.323L1030.33 536.662L1030.34 536.858C1030.34 536.885 1030.34 536.912 1030.33 536.936C1030.31 536.959 1030.3 536.978 1030.28 536.989C1029.91 537.166 1029.53 537.298 1029.14 537.381C1028.81 537.452 1028.48 537.491 1028.14 537.498V537.498ZM1028.75 535.877V532.307C1028.69 532.288 1028.63 532.275 1028.57 532.268C1028.49 532.259 1028.41 532.254 1028.34 532.255C1028.06 532.251 1027.79 532.323 1027.55 532.464C1027.31 532.602 1027.11 532.809 1026.96 533.066C1026.81 533.318 1026.74 533.648 1026.73 534.055L1026.73 534.099C1026.73 534.384 1026.77 534.668 1026.85 534.936C1026.92 535.152 1027.02 535.348 1027.16 535.511C1027.3 535.661 1027.46 535.773 1027.63 535.838C1027.82 535.909 1028.02 535.944 1028.21 535.943C1028.32 535.943 1028.41 535.938 1028.5 535.93C1028.58 535.923 1028.65 535.91 1028.72 535.889L1028.75 535.877V535.877Z" fill="black"/>
<path d="M890.127 414.244C891.442 413.364 892.753 412.476 894.072 411.605C895.324 410.777 896.797 411.54 897.081 413.15C897.245 414.081 896.889 415.087 896.168 415.577C893.804 417.184 891.437 418.784 889.058 420.359C888.322 420.847 887.563 420.757 886.892 420.159C886.211 419.553 885.996 418.716 886.156 417.742C886.338 417.001 886.756 416.505 887.326 416.134C888.267 415.521 889.194 414.876 890.127 414.244" fill="url(#paint12_linear_29_55)"/>
<path d="M891.092 413.605C889.781 412.717 888.467 411.837 887.16 410.94C885.919 410.09 885.75 408.22 886.803 407.129C887.413 406.497 888.338 406.354 889.062 406.837C891.437 408.421 893.809 410.012 896.168 411.627C896.898 412.127 897.211 412.938 897.103 413.914C896.993 414.906 896.479 415.541 895.676 415.867C895.034 416.053 894.457 415.879 893.897 415.489C892.971 414.844 892.028 414.231 891.092 413.605" fill="url(#paint13_linear_29_55)"/>
<path d="M879.141 412.977C878.3 413.534 877.458 414.091 876.617 414.65C876.126 414.977 875.639 415.315 875.145 415.637C874.149 416.285 872.966 415.905 872.402 414.763C871.863 413.674 872.172 412.262 873.131 411.609C875.476 410.013 877.827 408.428 880.186 406.861C880.91 406.381 881.661 406.441 882.33 407.016C883.036 407.622 883.267 408.475 883.109 409.475C883.01 409.717 882.952 410.001 882.804 410.192C882.565 410.502 882.292 410.799 881.989 411.017C881.051 411.692 880.092 412.327 879.141 412.977" fill="url(#paint14_linear_29_55)"/>
<path d="M878.176 413.601C879.011 414.172 879.845 414.744 880.681 415.314C881.169 415.647 881.664 415.969 882.15 416.307C883.129 416.989 883.439 418.373 882.873 419.514C882.333 420.603 881.13 420.997 880.165 420.355C877.807 418.785 875.455 417.203 873.112 415.603C872.394 415.113 872.063 414.324 872.155 413.361C872.252 412.345 872.77 411.685 873.592 411.345C873.821 411.323 874.061 411.241 874.277 411.294C874.627 411.381 874.983 411.508 875.297 411.705C876.267 412.315 877.218 412.966 878.176 413.601" fill="url(#paint15_linear_29_55)"/>
<path fill-rule="evenodd" clip-rule="evenodd" d="M156.222 486.636C151.466 486.636 147.611 491.453 147.611 497.394C147.611 503.336 151.466 508.153 156.222 508.153C160.977 508.153 164.833 503.336 164.833 497.394C164.833 491.453 160.977 486.636 156.222 486.636ZM156.323 503.687C153.547 503.687 151.3 500.871 151.3 497.394C151.3 493.918 153.547 491.102 156.323 491.102C157.679 491.102 158.813 491.727 159.682 492.742L158.266 494.516V494.512C157.738 493.883 157.07 493.56 156.323 493.56C154.665 493.56 153.318 495.314 153.318 497.391C153.318 499.466 154.665 501.226 156.323 501.226C157.827 501.226 158.85 500.148 159.061 498.669H156.323V496.215H161.048C161.111 496.636 161.145 497.075 161.145 497.536C161.145 501.131 159.224 503.687 156.323 503.687V503.687Z" fill="url(#paint16_linear_29_55)"/>
<path d="M38.3934 571.119H40.7175V572.273H39.3652V573.426H40.7175V574.58H38.3934V571.119ZM41.1817 571.119H43.5067V572.123H42.1544V572.323H43.5067V574.63H41.1817V573.577H42.534V573.376H41.1817V571.119ZM43.9719 571.119H46.295V572.123H44.9428V572.323H46.295V574.63H43.9719V573.577H45.3241V573.376H43.9719V571.119Z" fill="url(#paint17_linear_29_55)"/>
<path fill-rule="evenodd" clip-rule="evenodd" d="M42.4304 596.13L36.2613 594.134L34.4427 576.165H50.434L48.6163 594.132L42.4304 596.13ZM38.0381 584.299L38.2078 586.502H44.7615L44.5421 589.36L42.433 590.024H42.4313L40.3258 589.362L40.1907 587.605H38.2922L38.5569 591.065L42.4304 592.318L46.31 591.065L46.7827 584.89L46.8289 584.299L47.17 579.837H37.6979L37.8702 582.042H45.0983L44.9259 584.299H38.0381V584.299Z" fill="url(#paint18_linear_29_55)"/>
<path d="M230.644 372.649H244.175V389.226H230.644V372.649ZM230.028 390.001H244.789V371.874H230.028V390.001ZM239.696 378.334C239.696 378.273 239.715 378.242 239.77 378.242H240.736C240.785 378.242 240.81 378.265 240.81 378.334V384.446C240.81 384.508 240.798 384.539 240.736 384.539H239.783C239.722 384.539 239.703 384.501 239.703 384.439V378.334H239.697H239.696ZM239.629 376.576C239.629 376.367 239.695 376.166 239.813 376.018C239.93 375.869 240.09 375.786 240.256 375.786C240.423 375.786 240.582 375.869 240.7 376.018C240.818 376.166 240.884 376.367 240.884 376.576C240.89 376.683 240.877 376.791 240.847 376.891C240.817 376.991 240.77 377.082 240.709 377.158C240.648 377.233 240.575 377.29 240.495 377.326C240.415 377.362 240.329 377.376 240.244 377.366C240.161 377.373 240.078 377.357 240 377.319C239.922 377.282 239.852 377.223 239.794 377.148C239.735 377.073 239.69 376.983 239.662 376.885C239.634 376.786 239.623 376.681 239.63 376.576H239.629ZM236.861 380.884C236.689 380.02 236.281 378.149 236.13 377.243H236.117C235.988 378.149 235.662 379.683 235.404 380.884H236.861ZM235.152 382.138L234.666 384.462C234.653 384.524 234.635 384.54 234.573 384.54H233.67C233.609 384.54 233.596 384.517 233.609 384.424L235.355 376.722C235.398 376.512 235.418 376.296 235.417 376.079C235.417 376.024 235.435 376.001 235.466 376.001H236.757C236.801 376.001 236.819 376.017 236.831 376.079L238.787 384.437C238.799 384.499 238.787 384.538 238.738 384.538H237.717C237.668 384.538 237.637 384.523 237.625 384.472L237.12 382.14H235.152L235.152 382.138Z" fill="url(#paint19_linear_29_55)"/>
<path fill-rule="evenodd" clip-rule="evenodd" d="M100.868 419.315C100.868 418.908 101.004 418.517 101.246 418.229C101.489 417.941 101.817 417.779 102.16 417.779H115.041C115.211 417.779 115.379 417.818 115.536 417.895C115.693 417.972 115.836 418.085 115.956 418.228C116.076 418.371 116.172 418.54 116.237 418.727C116.302 418.913 116.335 419.113 116.335 419.315V434.626C116.335 434.828 116.302 435.028 116.237 435.214C116.172 435.401 116.077 435.571 115.957 435.713C115.837 435.856 115.694 435.969 115.537 436.047C115.38 436.124 115.212 436.164 115.042 436.164H102.16C101.99 436.164 101.822 436.124 101.665 436.047C101.509 435.969 101.366 435.856 101.246 435.713C101.126 435.571 101.031 435.401 100.966 435.215C100.901 435.028 100.868 434.829 100.868 434.627V419.315ZM106.99 424.789H109.084V426.039C109.387 425.32 110.16 424.673 111.322 424.673C113.55 424.673 114.078 426.105 114.078 428.731V433.596H111.824V429.33C111.824 427.834 111.521 426.99 110.753 426.99C109.688 426.99 109.245 427.9 109.245 429.33V433.596H106.99V424.789ZM103.123 433.482H105.379V424.673H103.123V433.481V433.482ZM105.701 421.8C105.706 422.03 105.671 422.258 105.6 422.472C105.529 422.685 105.423 422.88 105.288 423.044C105.153 423.208 104.992 423.338 104.814 423.427C104.636 423.516 104.444 423.562 104.251 423.562C104.058 423.562 103.867 423.516 103.689 423.427C103.511 423.338 103.35 423.208 103.214 423.044C103.079 422.88 102.973 422.685 102.902 422.472C102.831 422.258 102.797 422.03 102.801 421.8C102.81 421.35 102.966 420.921 103.237 420.606C103.508 420.291 103.872 420.114 104.251 420.114C104.63 420.114 104.994 420.291 105.265 420.606C105.537 420.921 105.693 421.35 105.701 421.8V421.8Z" fill="url(#paint20_linear_29_55)"/>
<path d="M173.14 582.749L174.959 585.696L184.163 582.749M163.577 605.701L168.556 600.076L165.56 596.36M172.386 582.749L169.725 585.519L174.201 585.712M162.042 582.75L162.996 585.014L168.264 585.392M164.861 594.486L168.753 586.099L157.452 585.39M165.314 595.016L168.99 599.579L173.045 594.988L174.302 586.433L169.362 586.14L165.314 595.016Z" fill="url(#paint21_linear_29_55)"/>
<path d="M718.376 1C664.662 59.4296 559.448 209.501 568.304 342.352" stroke="url(#paint22_linear_29_55)"/>
<path d="M642.725 21.9117C589.011 80.3412 548.377 221.187 557.234 354.038" stroke="url(#paint23_linear_29_55)"/>
<path d="M579.375 20.0665C556.003 101.253 536.937 312.214 536.937 378.64" stroke="url(#paint24_linear_29_55)"/>
<path d="M373.334 12.6859C427.048 71.1155 526.727 249.479 517.87 382.33" stroke="url(#paint25_linear_29_55)"/>
<path d="M448.985 12.6859C502.699 71.1155 537.798 261.165 528.942 394.016" stroke="url(#paint26_linear_29_55)"/>
<path d="M509.26 16.3762C532.943 105.352 535.092 328.598 535.092 401.396" stroke="url(#paint27_linear_29_55)"/>
<ellipse cx="556.004" cy="501.034" rx="333.356" ry="202.966" fill="url(#paint28_radial_29_55)"/>
<path d="M548.849 403.275C548.849 401.334 548.715 399.6 548.885 397.895C549.062 396.118 549.216 394.228 549.929 392.634C551.989 388.024 555.704 385.577 560.776 385.436C564.546 385.332 568.322 385.439 572.094 385.396C572.995 385.384 573.04 385.835 573.038 386.514C573.024 391.721 573.033 396.929 573.031 402.134C573.031 416.395 573.115 430.658 572.997 444.919C572.886 458.359 567.749 469.695 557.996 478.898C551.441 485.081 543.637 488.903 534.81 490.669C514.972 494.633 493.998 484.59 484.528 466.657C480.28 458.601 478.326 450.032 479.116 441.005C480.498 425.218 487.976 412.965 501.379 404.468C509.024 399.623 517.481 397.366 526.516 397.486C533.909 397.583 540.868 399.582 547.527 402.715C547.884 402.885 548.256 403.026 548.847 403.277L548.849 403.275ZM526.082 421.675C513.691 421.573 503.333 431.716 503.19 444.061C503.038 457.141 513.433 466.844 525.151 467.254C538.025 467.705 548.65 457.521 548.817 444.879C548.987 432.039 538.903 421.781 526.082 421.675Z" fill="#243763"/>
<path d="M596.317 485.009C601.013 481.008 603.992 475.052 603.992 468.4C603.992 468.194 603.988 467.99 603.983 467.786C603.858 474.581 600.938 480.691 596.317 485.009Z" fill="#2E3192"/>
<path d="M574.971 488.989L569.336 486.028C571.043 487.273 572.938 488.278 574.971 488.989Z" fill="#2E3192"/>
<path d="M581.286 405.007C580.663 404.565 579.798 405.016 579.798 405.779V450.663C579.798 462.871 574.704 474.504 565.782 482.777C566.841 483.986 568.034 485.075 569.334 486.023L574.969 488.985C577.226 489.775 579.651 490.205 582.178 490.205C587.571 490.205 592.506 488.246 596.315 485.002C600.935 480.682 603.856 474.574 603.981 467.78C603.983 467.63 603.99 467.478 603.99 467.329V432.737C603.99 431.22 603.584 429.732 602.819 428.421C600.234 424 593.292 413.531 581.284 405.004L581.286 405.007Z" fill="#243763"/>
<defs>
<linearGradient id="paint0_linear_29_55" x1="541.242" y1="327.59" x2="541.242" y2="549.008" gradientUnits="userSpaceOnUse">
<stop stop-color="#243763" stop-opacity="0.6"/>
<stop offset="1" stop-color="#243763" stop-opacity="0.36"/>
</linearGradient>
<linearGradient id="paint1_linear_29_55" x1="541.857" y1="338.661" x2="541.857" y2="669.557" gradientUnits="userSpaceOnUse">
<stop stop-opacity="0"/>
<stop offset="0.479167" stop-color="#243763"/>
</linearGradient>
<linearGradient id="paint2_linear_29_55" x1="547.393" y1="338.661" x2="547.393" y2="669.557" gradientUnits="userSpaceOnUse">
<stop stop-opacity="0"/>
<stop offset="0.479167" stop-color="#243763"/>
</linearGradient>
<linearGradient id="paint3_linear_29_55" x1="560.309" y1="338.661" x2="560.309" y2="669.557" gradientUnits="userSpaceOnUse">
<stop stop-opacity="0"/>
<stop offset="0.479167" stop-color="#243763"/>
</linearGradient>
<linearGradient id="paint4_linear_29_55" x1="547.393" y1="250.094" x2="547.393" y2="588.371" gradientUnits="userSpaceOnUse">
<stop offset="0.197917" stop-opacity="0"/>
<stop offset="1" stop-color="#243763"/>
</linearGradient>
<linearGradient id="paint5_linear_29_55" x1="546.778" y1="362.033" x2="546.778" y2="563.769" gradientUnits="userSpaceOnUse">
<stop offset="0.197917" stop-opacity="0"/>
<stop offset="1" stop-color="#243763"/>
</linearGradient>
<linearGradient id="paint6_linear_29_55" x1="1037.03" y1="434.993" x2="1037.03" y2="460.662" gradientUnits="userSpaceOnUse">
<stop stop-color="#243763" stop-opacity="0.53"/>
<stop offset="1" stop-color="#243763"/>
</linearGradient>
<linearGradient id="paint7_linear_29_55" x1="1037.02" y1="445.145" x2="1037.02" y2="450.515" gradientUnits="userSpaceOnUse">
<stop stop-color="#243763" stop-opacity="0.53"/>
<stop offset="1" stop-color="#243763"/>
</linearGradient>
<linearGradient id="paint8_linear_29_55" x1="956.4" y1="397.695" x2="956.4" y2="416.344" gradientUnits="userSpaceOnUse">
<stop stop-color="#243763" stop-opacity="0.53"/>
<stop offset="1" stop-color="#243763"/>
</linearGradient>
<linearGradient id="paint9_linear_29_55" x1="1091.1" y1="499.547" x2="1091.1" y2="526.803" gradientUnits="userSpaceOnUse">
<stop stop-color="#243763" stop-opacity="0.53"/>
<stop offset="1" stop-color="#243763"/>
</linearGradient>
<linearGradient id="paint10_linear_29_55" x1="949.019" y1="607.135" x2="949.019" y2="630.804" gradientUnits="userSpaceOnUse">
<stop stop-color="#243763" stop-opacity="0.53"/>
<stop offset="1" stop-color="#243763"/>
</linearGradient>
<linearGradient id="paint11_linear_29_55" x1="1024.42" y1="523.933" x2="1024.42" y2="542.941" gradientUnits="userSpaceOnUse">
<stop stop-color="#243763" stop-opacity="0.53"/>
<stop offset="1" stop-color="#243763"/>
</linearGradient>
<linearGradient id="paint12_linear_29_55" x1="891.613" y1="411.267" x2="891.613" y2="420.673" gradientUnits="userSpaceOnUse">
<stop stop-color="#243763" stop-opacity="0.53"/>
<stop offset="1" stop-color="#243763"/>
</linearGradient>
<linearGradient id="paint13_linear_29_55" x1="891.617" y1="406.549" x2="891.617" y2="415.942" gradientUnits="userSpaceOnUse">
<stop stop-color="#243763" stop-opacity="0.53"/>
<stop offset="1" stop-color="#243763"/>
</linearGradient>
<linearGradient id="paint14_linear_29_55" x1="877.647" y1="406.539" x2="877.647" y2="415.952" gradientUnits="userSpaceOnUse">
<stop stop-color="#243763" stop-opacity="0.53"/>
<stop offset="1" stop-color="#243763"/>
</linearGradient>
<linearGradient id="paint15_linear_29_55" x1="877.647" y1="411.276" x2="877.647" y2="420.664" gradientUnits="userSpaceOnUse">
<stop stop-color="#243763" stop-opacity="0.53"/>
<stop offset="1" stop-color="#243763"/>
</linearGradient>
<linearGradient id="paint16_linear_29_55" x1="156.222" y1="486.636" x2="156.222" y2="508.153" gradientUnits="userSpaceOnUse">
<stop stop-color="#243763" stop-opacity="0.53"/>
<stop offset="1" stop-color="#243763"/>
</linearGradient>
<linearGradient id="paint17_linear_29_55" x1="42.3442" y1="571.119" x2="42.3442" y2="574.63" gradientUnits="userSpaceOnUse">
<stop stop-color="#243763" stop-opacity="0.53"/>
<stop offset="1" stop-color="#243763"/>
</linearGradient>
<linearGradient id="paint18_linear_29_55" x1="42.4384" y1="576.165" x2="42.4384" y2="596.13" gradientUnits="userSpaceOnUse">
<stop stop-color="#243763" stop-opacity="0.53"/>
<stop offset="1" stop-color="#243763"/>
</linearGradient>
<linearGradient id="paint19_linear_29_55" x1="237.408" y1="371.874" x2="237.408" y2="390.001" gradientUnits="userSpaceOnUse">
<stop stop-color="#243763" stop-opacity="0.53"/>
<stop offset="1" stop-color="#243763"/>
</linearGradient>
<linearGradient id="paint20_linear_29_55" x1="108.601" y1="417.779" x2="108.601" y2="436.164" gradientUnits="userSpaceOnUse">
<stop stop-color="#243763" stop-opacity="0.53"/>
<stop offset="1" stop-color="#243763"/>
</linearGradient>
<linearGradient id="paint21_linear_29_55" x1="170.808" y1="582.749" x2="170.808" y2="605.701" gradientUnits="userSpaceOnUse">
<stop stop-color="#243763" stop-opacity="0.53"/>
<stop offset="1" stop-color="#243763"/>
</linearGradient>
<linearGradient id="paint22_linear_29_55" x1="643.077" y1="1" x2="643.077" y2="342.352" gradientUnits="userSpaceOnUse">
<stop stop-color="#243763"/>
<stop offset="1" stop-color="#3D1768" stop-opacity="0"/>
</linearGradient>
<linearGradient id="paint23_linear_29_55" x1="599.371" y1="21.9117" x2="599.371" y2="354.038" gradientUnits="userSpaceOnUse">
<stop stop-color="#243763"/>
<stop offset="1" stop-color="#3D1768" stop-opacity="0"/>
</linearGradient>
<linearGradient id="paint24_linear_29_55" x1="548.315" y1="40.9781" x2="548.315" y2="374.334" gradientUnits="userSpaceOnUse">
<stop stop-color="#243763"/>
<stop offset="1" stop-color="#243763" stop-opacity="0"/>
</linearGradient>
<linearGradient id="paint25_linear_29_55" x1="451.756" y1="43.4383" x2="451.756" y2="382.33" gradientUnits="userSpaceOnUse">
<stop stop-color="#243763"/>
<stop offset="1" stop-color="#243763" stop-opacity="0"/>
</linearGradient>
<linearGradient id="paint26_linear_29_55" x1="493.788" y1="40.9781" x2="493.788" y2="394.016" gradientUnits="userSpaceOnUse">
<stop stop-color="#243763"/>
<stop offset="1" stop-color="#243763" stop-opacity="0"/>
</linearGradient>
<linearGradient id="paint27_linear_29_55" x1="537.552" y1="48.3587" x2="537.552" y2="413.697" gradientUnits="userSpaceOnUse">
<stop stop-color="#243763"/>
<stop offset="1" stop-color="#243763" stop-opacity="0"/>
</linearGradient>
<radialGradient id="paint28_radial_29_55" cx="0" cy="0" r="1" gradientUnits="userSpaceOnUse" gradientTransform="translate(556.004 501.034) rotate(90) scale(202.966 333.356)">
<stop stop-color="#243763"/>
<stop offset="1" stop-color="#243763" stop-opacity="0"/>
</radialGradient>
</defs>
</svg>
